G04 #@! TF.GenerationSoftware,KiCad,Pcbnew,8.0.5*
G04 #@! TF.CreationDate,2024-11-09T17:30:00+01:00*
G04 #@! TF.ProjectId,converter,636f6e76-6572-4746-9572-2e6b69636164,rev?*
G04 #@! TF.SameCoordinates,Original*
G04 #@! TF.FileFunction,Legend,Top*
G04 #@! TF.FilePolarity,Positive*
%FSLAX46Y46*%
G04 Gerber Fmt 4.6, Leading zero omitted, Abs format (unit mm)*
G04 Created by KiCad (PCBNEW 8.0.5) date 2024-11-09 17:30:00*
%MOMM*%
%LPD*%
G01*
G04 APERTURE LIST*
G04 Aperture macros list*
%AMRoundRect*
0 Rectangle with rounded corners*
0 $1 Rounding radius*
0 $2 $3 $4 $5 $6 $7 $8 $9 X,Y pos of 4 corners*
0 Add a 4 corners polygon primitive as box body*
4,1,4,$2,$3,$4,$5,$6,$7,$8,$9,$2,$3,0*
0 Add four circle primitives for the rounded corners*
1,1,$1+$1,$2,$3*
1,1,$1+$1,$4,$5*
1,1,$1+$1,$6,$7*
1,1,$1+$1,$8,$9*
0 Add four rect primitives between the rounded corners*
20,1,$1+$1,$2,$3,$4,$5,0*
20,1,$1+$1,$4,$5,$6,$7,0*
20,1,$1+$1,$6,$7,$8,$9,0*
20,1,$1+$1,$8,$9,$2,$3,0*%
G04 Aperture macros list end*
%ADD10C,0.153000*%
%ADD11C,0.120000*%
%ADD12RoundRect,0.750000X-1.750000X-0.750000X1.750000X-0.750000X1.750000X0.750000X-1.750000X0.750000X0*%
%ADD13R,1.600000X1.600000*%
%ADD14RoundRect,0.250000X0.450000X-0.262500X0.450000X0.262500X-0.450000X0.262500X-0.450000X-0.262500X0*%
%ADD15RoundRect,0.250000X0.262500X0.450000X-0.262500X0.450000X-0.262500X-0.450000X0.262500X-0.450000X0*%
G04 APERTURE END LIST*
D10*
X44154146Y-29172085D02*
X44106527Y-29314942D01*
X44106527Y-29314942D02*
X44058908Y-29362561D01*
X44058908Y-29362561D02*
X43963670Y-29410180D01*
X43963670Y-29410180D02*
X43820813Y-29410180D01*
X43820813Y-29410180D02*
X43725575Y-29362561D01*
X43725575Y-29362561D02*
X43677956Y-29314942D01*
X43677956Y-29314942D02*
X43630336Y-29219704D01*
X43630336Y-29219704D02*
X43630336Y-28838752D01*
X43630336Y-28838752D02*
X44630336Y-28838752D01*
X44630336Y-28838752D02*
X44630336Y-29172085D01*
X44630336Y-29172085D02*
X44582717Y-29267323D01*
X44582717Y-29267323D02*
X44535098Y-29314942D01*
X44535098Y-29314942D02*
X44439860Y-29362561D01*
X44439860Y-29362561D02*
X44344622Y-29362561D01*
X44344622Y-29362561D02*
X44249384Y-29314942D01*
X44249384Y-29314942D02*
X44201765Y-29267323D01*
X44201765Y-29267323D02*
X44154146Y-29172085D01*
X44154146Y-29172085D02*
X44154146Y-28838752D01*
X43630336Y-29838752D02*
X44630336Y-29838752D01*
X44630336Y-29838752D02*
X43916051Y-30172085D01*
X43916051Y-30172085D02*
X44630336Y-30505418D01*
X44630336Y-30505418D02*
X43630336Y-30505418D01*
X43677956Y-30933990D02*
X43630336Y-31076847D01*
X43630336Y-31076847D02*
X43630336Y-31314942D01*
X43630336Y-31314942D02*
X43677956Y-31410180D01*
X43677956Y-31410180D02*
X43725575Y-31457799D01*
X43725575Y-31457799D02*
X43820813Y-31505418D01*
X43820813Y-31505418D02*
X43916051Y-31505418D01*
X43916051Y-31505418D02*
X44011289Y-31457799D01*
X44011289Y-31457799D02*
X44058908Y-31410180D01*
X44058908Y-31410180D02*
X44106527Y-31314942D01*
X44106527Y-31314942D02*
X44154146Y-31124466D01*
X44154146Y-31124466D02*
X44201765Y-31029228D01*
X44201765Y-31029228D02*
X44249384Y-30981609D01*
X44249384Y-30981609D02*
X44344622Y-30933990D01*
X44344622Y-30933990D02*
X44439860Y-30933990D01*
X44439860Y-30933990D02*
X44535098Y-30981609D01*
X44535098Y-30981609D02*
X44582717Y-31029228D01*
X44582717Y-31029228D02*
X44630336Y-31124466D01*
X44630336Y-31124466D02*
X44630336Y-31362561D01*
X44630336Y-31362561D02*
X44582717Y-31505418D01*
X72307338Y-35642857D02*
X72259719Y-35738095D01*
X72259719Y-35738095D02*
X72259719Y-35880952D01*
X72259719Y-35880952D02*
X72307338Y-36023809D01*
X72307338Y-36023809D02*
X72402576Y-36119047D01*
X72402576Y-36119047D02*
X72497814Y-36166666D01*
X72497814Y-36166666D02*
X72688290Y-36214285D01*
X72688290Y-36214285D02*
X72831147Y-36214285D01*
X72831147Y-36214285D02*
X73021623Y-36166666D01*
X73021623Y-36166666D02*
X73116861Y-36119047D01*
X73116861Y-36119047D02*
X73212100Y-36023809D01*
X73212100Y-36023809D02*
X73259719Y-35880952D01*
X73259719Y-35880952D02*
X73259719Y-35785714D01*
X73259719Y-35785714D02*
X73212100Y-35642857D01*
X73212100Y-35642857D02*
X73164480Y-35595238D01*
X73164480Y-35595238D02*
X72831147Y-35595238D01*
X72831147Y-35595238D02*
X72831147Y-35785714D01*
X73259719Y-35166666D02*
X72259719Y-35166666D01*
X72259719Y-35166666D02*
X73259719Y-34595238D01*
X73259719Y-34595238D02*
X72259719Y-34595238D01*
X73259719Y-34119047D02*
X72259719Y-34119047D01*
X72259719Y-34119047D02*
X72259719Y-33880952D01*
X72259719Y-33880952D02*
X72307338Y-33738095D01*
X72307338Y-33738095D02*
X72402576Y-33642857D01*
X72402576Y-33642857D02*
X72497814Y-33595238D01*
X72497814Y-33595238D02*
X72688290Y-33547619D01*
X72688290Y-33547619D02*
X72831147Y-33547619D01*
X72831147Y-33547619D02*
X73021623Y-33595238D01*
X73021623Y-33595238D02*
X73116861Y-33642857D01*
X73116861Y-33642857D02*
X73212100Y-33738095D01*
X73212100Y-33738095D02*
X73259719Y-33880952D01*
X73259719Y-33880952D02*
X73259719Y-34119047D01*
X73259719Y-31595237D02*
X72259719Y-31595237D01*
X72259719Y-31595237D02*
X72259719Y-31357142D01*
X72259719Y-31357142D02*
X72307338Y-31214285D01*
X72307338Y-31214285D02*
X72402576Y-31119047D01*
X72402576Y-31119047D02*
X72497814Y-31071428D01*
X72497814Y-31071428D02*
X72688290Y-31023809D01*
X72688290Y-31023809D02*
X72831147Y-31023809D01*
X72831147Y-31023809D02*
X73021623Y-31071428D01*
X73021623Y-31071428D02*
X73116861Y-31119047D01*
X73116861Y-31119047D02*
X73212100Y-31214285D01*
X73212100Y-31214285D02*
X73259719Y-31357142D01*
X73259719Y-31357142D02*
X73259719Y-31595237D01*
X72974004Y-30642856D02*
X72974004Y-30166666D01*
X73259719Y-30738094D02*
X72259719Y-30404761D01*
X72259719Y-30404761D02*
X73259719Y-30071428D01*
X72259719Y-29880951D02*
X72259719Y-29309523D01*
X73259719Y-29595237D02*
X72259719Y-29595237D01*
X72974004Y-29023808D02*
X72974004Y-28547618D01*
X73259719Y-29119046D02*
X72259719Y-28785713D01*
X72259719Y-28785713D02*
X73259719Y-28452380D01*
X72259719Y-26690474D02*
X72259719Y-26071427D01*
X72259719Y-26071427D02*
X72640671Y-26404760D01*
X72640671Y-26404760D02*
X72640671Y-26261903D01*
X72640671Y-26261903D02*
X72688290Y-26166665D01*
X72688290Y-26166665D02*
X72735909Y-26119046D01*
X72735909Y-26119046D02*
X72831147Y-26071427D01*
X72831147Y-26071427D02*
X73069242Y-26071427D01*
X73069242Y-26071427D02*
X73164480Y-26119046D01*
X73164480Y-26119046D02*
X73212100Y-26166665D01*
X73212100Y-26166665D02*
X73259719Y-26261903D01*
X73259719Y-26261903D02*
X73259719Y-26547617D01*
X73259719Y-26547617D02*
X73212100Y-26642855D01*
X73212100Y-26642855D02*
X73164480Y-26690474D01*
X73212100Y-25595236D02*
X73259719Y-25595236D01*
X73259719Y-25595236D02*
X73354957Y-25642855D01*
X73354957Y-25642855D02*
X73402576Y-25690474D01*
X72259719Y-25261903D02*
X72259719Y-24642856D01*
X72259719Y-24642856D02*
X72640671Y-24976189D01*
X72640671Y-24976189D02*
X72640671Y-24833332D01*
X72640671Y-24833332D02*
X72688290Y-24738094D01*
X72688290Y-24738094D02*
X72735909Y-24690475D01*
X72735909Y-24690475D02*
X72831147Y-24642856D01*
X72831147Y-24642856D02*
X73069242Y-24642856D01*
X73069242Y-24642856D02*
X73164480Y-24690475D01*
X73164480Y-24690475D02*
X73212100Y-24738094D01*
X73212100Y-24738094D02*
X73259719Y-24833332D01*
X73259719Y-24833332D02*
X73259719Y-25119046D01*
X73259719Y-25119046D02*
X73212100Y-25214284D01*
X73212100Y-25214284D02*
X73164480Y-25261903D01*
X72259719Y-24357141D02*
X73259719Y-24023808D01*
X73259719Y-24023808D02*
X72259719Y-23690475D01*
X74345853Y-31190475D02*
X74345853Y-30857142D01*
X74869663Y-30714285D02*
X74869663Y-31190475D01*
X74869663Y-31190475D02*
X73869663Y-31190475D01*
X73869663Y-31190475D02*
X73869663Y-30714285D01*
X74822044Y-30333332D02*
X74869663Y-30190475D01*
X74869663Y-30190475D02*
X74869663Y-29952380D01*
X74869663Y-29952380D02*
X74822044Y-29857142D01*
X74822044Y-29857142D02*
X74774424Y-29809523D01*
X74774424Y-29809523D02*
X74679186Y-29761904D01*
X74679186Y-29761904D02*
X74583948Y-29761904D01*
X74583948Y-29761904D02*
X74488710Y-29809523D01*
X74488710Y-29809523D02*
X74441091Y-29857142D01*
X74441091Y-29857142D02*
X74393472Y-29952380D01*
X74393472Y-29952380D02*
X74345853Y-30142856D01*
X74345853Y-30142856D02*
X74298234Y-30238094D01*
X74298234Y-30238094D02*
X74250615Y-30285713D01*
X74250615Y-30285713D02*
X74155377Y-30333332D01*
X74155377Y-30333332D02*
X74060139Y-30333332D01*
X74060139Y-30333332D02*
X73964901Y-30285713D01*
X73964901Y-30285713D02*
X73917282Y-30238094D01*
X73917282Y-30238094D02*
X73869663Y-30142856D01*
X73869663Y-30142856D02*
X73869663Y-29904761D01*
X73869663Y-29904761D02*
X73917282Y-29761904D01*
X74869663Y-29333332D02*
X73869663Y-29333332D01*
X73869663Y-29333332D02*
X73869663Y-28952380D01*
X73869663Y-28952380D02*
X73917282Y-28857142D01*
X73917282Y-28857142D02*
X73964901Y-28809523D01*
X73964901Y-28809523D02*
X74060139Y-28761904D01*
X74060139Y-28761904D02*
X74202996Y-28761904D01*
X74202996Y-28761904D02*
X74298234Y-28809523D01*
X74298234Y-28809523D02*
X74345853Y-28857142D01*
X74345853Y-28857142D02*
X74393472Y-28952380D01*
X74393472Y-28952380D02*
X74393472Y-29333332D01*
X56388095Y-25854663D02*
X56388095Y-26664186D01*
X56388095Y-26664186D02*
X56435714Y-26759424D01*
X56435714Y-26759424D02*
X56483333Y-26807044D01*
X56483333Y-26807044D02*
X56578571Y-26854663D01*
X56578571Y-26854663D02*
X56769047Y-26854663D01*
X56769047Y-26854663D02*
X56864285Y-26807044D01*
X56864285Y-26807044D02*
X56911904Y-26759424D01*
X56911904Y-26759424D02*
X56959523Y-26664186D01*
X56959523Y-26664186D02*
X56959523Y-25854663D01*
X57959523Y-26854663D02*
X57388095Y-26854663D01*
X57673809Y-26854663D02*
X57673809Y-25854663D01*
X57673809Y-25854663D02*
X57578571Y-25997520D01*
X57578571Y-25997520D02*
X57483333Y-26092758D01*
X57483333Y-26092758D02*
X57388095Y-26140377D01*
X61804663Y-24496666D02*
X61328472Y-24829999D01*
X61804663Y-25068094D02*
X60804663Y-25068094D01*
X60804663Y-25068094D02*
X60804663Y-24687142D01*
X60804663Y-24687142D02*
X60852282Y-24591904D01*
X60852282Y-24591904D02*
X60899901Y-24544285D01*
X60899901Y-24544285D02*
X60995139Y-24496666D01*
X60995139Y-24496666D02*
X61137996Y-24496666D01*
X61137996Y-24496666D02*
X61233234Y-24544285D01*
X61233234Y-24544285D02*
X61280853Y-24591904D01*
X61280853Y-24591904D02*
X61328472Y-24687142D01*
X61328472Y-24687142D02*
X61328472Y-25068094D01*
X60899901Y-24115713D02*
X60852282Y-24068094D01*
X60852282Y-24068094D02*
X60804663Y-23972856D01*
X60804663Y-23972856D02*
X60804663Y-23734761D01*
X60804663Y-23734761D02*
X60852282Y-23639523D01*
X60852282Y-23639523D02*
X60899901Y-23591904D01*
X60899901Y-23591904D02*
X60995139Y-23544285D01*
X60995139Y-23544285D02*
X61090377Y-23544285D01*
X61090377Y-23544285D02*
X61233234Y-23591904D01*
X61233234Y-23591904D02*
X61804663Y-24163332D01*
X61804663Y-24163332D02*
X61804663Y-23544285D01*
X48833333Y-31104663D02*
X48500000Y-30628472D01*
X48261905Y-31104663D02*
X48261905Y-30104663D01*
X48261905Y-30104663D02*
X48642857Y-30104663D01*
X48642857Y-30104663D02*
X48738095Y-30152282D01*
X48738095Y-30152282D02*
X48785714Y-30199901D01*
X48785714Y-30199901D02*
X48833333Y-30295139D01*
X48833333Y-30295139D02*
X48833333Y-30437996D01*
X48833333Y-30437996D02*
X48785714Y-30533234D01*
X48785714Y-30533234D02*
X48738095Y-30580853D01*
X48738095Y-30580853D02*
X48642857Y-30628472D01*
X48642857Y-30628472D02*
X48261905Y-30628472D01*
X49785714Y-31104663D02*
X49214286Y-31104663D01*
X49500000Y-31104663D02*
X49500000Y-30104663D01*
X49500000Y-30104663D02*
X49404762Y-30247520D01*
X49404762Y-30247520D02*
X49309524Y-30342758D01*
X49309524Y-30342758D02*
X49214286Y-30390377D01*
D11*
X52010000Y-27340000D02*
X52010000Y-32660000D01*
X52010000Y-32660000D02*
X62290000Y-32660000D01*
X54500000Y-27400000D02*
X54500000Y-32600000D01*
X54500000Y-32600000D02*
X59800000Y-32600000D01*
X56150000Y-27400000D02*
X54500000Y-27400000D01*
X59800000Y-27400000D02*
X58150000Y-27400000D01*
X59800000Y-32600000D02*
X59800000Y-27400000D01*
X62290000Y-27340000D02*
X52010000Y-27340000D01*
X62290000Y-32660000D02*
X62290000Y-27340000D01*
X58150000Y-27400000D02*
G75*
G02*
X56150000Y-27400000I-1000000J0D01*
G01*
X62265000Y-25227064D02*
X62265000Y-24772936D01*
X63735000Y-25227064D02*
X63735000Y-24772936D01*
X49227064Y-29735000D02*
X48772936Y-29735000D01*
X49227064Y-28265000D02*
X48772936Y-28265000D01*
%LPC*%
D12*
X69000000Y-30000000D03*
X48000000Y-25000000D03*
X69000000Y-35000000D03*
D13*
X53340000Y-28730000D03*
X53340000Y-31270000D03*
X60960000Y-31270000D03*
X60960000Y-28730000D03*
D12*
X48000000Y-35000000D03*
X69000000Y-25000000D03*
D14*
X63000000Y-25912500D03*
X63000000Y-24087500D03*
D15*
X49912500Y-29000000D03*
X48087500Y-29000000D03*
%LPD*%
M02*
