%TF.GenerationSoftware,KiCad,Pcbnew,8.0.5*%
%TF.CreationDate,2024-11-09T17:30:53+01:00*%
%TF.ProjectId,converter,636f6e76-6572-4746-9572-2e6b69636164,rev?*%
%TF.SameCoordinates,Original*%
%TF.FileFunction,Drillmap*%
%TF.FilePolarity,Positive*%
%FSLAX45Y45*%
G04 Gerber Fmt 4.5, Leading zero omitted, Abs format (unit mm)*
G04 Created by KiCad (PCBNEW 8.0.5) date 2024-11-09 17:30:53*
%MOMM*%
%LPD*%
G01*
G04 APERTURE LIST*
%ADD10C,0.050000*%
%ADD11C,0.200000*%
G04 APERTURE END LIST*
D10*
X7250000Y-2100000D02*
G75*
G02*
X7550000Y-2400000I0J-300000D01*
G01*
X7550000Y-2400000D02*
X7550000Y-4050000D01*
X4200000Y-4050000D02*
X4200000Y-2400000D01*
X4500000Y-4350000D02*
G75*
G02*
X4200000Y-4050000I0J300000D01*
G01*
X7250000Y-4350000D02*
X4500000Y-4350000D01*
X7250000Y-2100000D02*
X4500000Y-2100000D01*
X7550000Y-4050000D02*
G75*
G02*
X7250000Y-4350000I-300000J0D01*
G01*
X4200000Y-2400000D02*
G75*
G02*
X4500000Y-2100000I300000J0D01*
G01*
X6090000Y-3810000D02*
G75*
G02*
X5610000Y-3810000I-240000J0D01*
G01*
X5610000Y-3810000D02*
G75*
G02*
X6090000Y-3810000I240000J0D01*
G01*
D11*
X4458277Y-4663984D02*
X4458277Y-4463984D01*
X4458277Y-4463984D02*
X4505896Y-4463984D01*
X4505896Y-4463984D02*
X4534467Y-4473508D01*
X4534467Y-4473508D02*
X4553515Y-4492555D01*
X4553515Y-4492555D02*
X4563039Y-4511603D01*
X4563039Y-4511603D02*
X4572563Y-4549698D01*
X4572563Y-4549698D02*
X4572563Y-4578270D01*
X4572563Y-4578270D02*
X4563039Y-4616365D01*
X4563039Y-4616365D02*
X4553515Y-4635412D01*
X4553515Y-4635412D02*
X4534467Y-4654460D01*
X4534467Y-4654460D02*
X4505896Y-4663984D01*
X4505896Y-4663984D02*
X4458277Y-4663984D01*
X4658277Y-4663984D02*
X4658277Y-4530650D01*
X4658277Y-4568746D02*
X4667801Y-4549698D01*
X4667801Y-4549698D02*
X4677324Y-4540174D01*
X4677324Y-4540174D02*
X4696372Y-4530650D01*
X4696372Y-4530650D02*
X4715420Y-4530650D01*
X4782086Y-4663984D02*
X4782086Y-4530650D01*
X4782086Y-4463984D02*
X4772563Y-4473508D01*
X4772563Y-4473508D02*
X4782086Y-4483031D01*
X4782086Y-4483031D02*
X4791610Y-4473508D01*
X4791610Y-4473508D02*
X4782086Y-4463984D01*
X4782086Y-4463984D02*
X4782086Y-4483031D01*
X4905896Y-4663984D02*
X4886848Y-4654460D01*
X4886848Y-4654460D02*
X4877324Y-4635412D01*
X4877324Y-4635412D02*
X4877324Y-4463984D01*
X5010658Y-4663984D02*
X4991610Y-4654460D01*
X4991610Y-4654460D02*
X4982086Y-4635412D01*
X4982086Y-4635412D02*
X4982086Y-4463984D01*
X5239229Y-4663984D02*
X5239229Y-4463984D01*
X5239229Y-4463984D02*
X5305896Y-4606841D01*
X5305896Y-4606841D02*
X5372563Y-4463984D01*
X5372563Y-4463984D02*
X5372563Y-4663984D01*
X5553515Y-4663984D02*
X5553515Y-4559222D01*
X5553515Y-4559222D02*
X5543991Y-4540174D01*
X5543991Y-4540174D02*
X5524944Y-4530650D01*
X5524944Y-4530650D02*
X5486848Y-4530650D01*
X5486848Y-4530650D02*
X5467801Y-4540174D01*
X5553515Y-4654460D02*
X5534467Y-4663984D01*
X5534467Y-4663984D02*
X5486848Y-4663984D01*
X5486848Y-4663984D02*
X5467801Y-4654460D01*
X5467801Y-4654460D02*
X5458277Y-4635412D01*
X5458277Y-4635412D02*
X5458277Y-4616365D01*
X5458277Y-4616365D02*
X5467801Y-4597317D01*
X5467801Y-4597317D02*
X5486848Y-4587793D01*
X5486848Y-4587793D02*
X5534467Y-4587793D01*
X5534467Y-4587793D02*
X5553515Y-4578270D01*
X5648753Y-4530650D02*
X5648753Y-4730650D01*
X5648753Y-4540174D02*
X5667801Y-4530650D01*
X5667801Y-4530650D02*
X5705896Y-4530650D01*
X5705896Y-4530650D02*
X5724943Y-4540174D01*
X5724943Y-4540174D02*
X5734467Y-4549698D01*
X5734467Y-4549698D02*
X5743991Y-4568746D01*
X5743991Y-4568746D02*
X5743991Y-4625889D01*
X5743991Y-4625889D02*
X5734467Y-4644936D01*
X5734467Y-4644936D02*
X5724943Y-4654460D01*
X5724943Y-4654460D02*
X5705896Y-4663984D01*
X5705896Y-4663984D02*
X5667801Y-4663984D01*
X5667801Y-4663984D02*
X5648753Y-4654460D01*
X5829705Y-4644936D02*
X5839229Y-4654460D01*
X5839229Y-4654460D02*
X5829705Y-4663984D01*
X5829705Y-4663984D02*
X5820182Y-4654460D01*
X5820182Y-4654460D02*
X5829705Y-4644936D01*
X5829705Y-4644936D02*
X5829705Y-4663984D01*
X5829705Y-4540174D02*
X5839229Y-4549698D01*
X5839229Y-4549698D02*
X5829705Y-4559222D01*
X5829705Y-4559222D02*
X5820182Y-4549698D01*
X5820182Y-4549698D02*
X5829705Y-4540174D01*
X5829705Y-4540174D02*
X5829705Y-4559222D01*
M02*
